<svg xmlns="http://www.w3.org/2000/svg" width="274" height="24" viewBox="0 0 274 24" fill="none"><g clip-path="url(#clip0_483_387)"><path fill-rule="evenodd" clip-rule="evenodd" d="M1.06546e-08 3.03673V0L6.20633 0.00303731C12.9863 0.00626996 14.5349 0.0693557 15.8221 0.394875C16.2909 0.513405 16.7704 0.632132 16.8875 0.658841C25.8847 3.60622 28.6539 14.1354 21.7492 20.2831C20.199 21.6989 18.847 22.4813 16.8876 23.0968C15.5973 23.503 12.3439 23.7061 7.12721 23.7061H0V20.7673H6.79233C13.8403 20.7673 14.2455 20.7478 15.6622 20.3397C22.005 18.4762 24.447 11.1701 20.265 6.38518C18.7625 4.68862 16.9703 3.67817 14.6577 3.22374C13.7774 3.05074 13.1935 3.03673 6.85317 3.03673H1.06546e-08ZM73.9432 0.0979592C73.9432 0.0979592 76.9952 0.0979592 78.9509 0.0979592C78.9524 1.81815 78.9549 4.50279 78.9549 4.50279C78.9549 4.50279 82.3292 4.50482 84.4913 4.50612C84.4913 6.03634 84.4913 8.42449 84.4913 8.42449L78.9407 8.42782C78.9566 10.6361 78.9407 13.7633 79.0041 17.2898C79.0352 19.0194 81.2009 19.4431 83.2127 19.446L84.8642 19.4484C84.8718 20.1908 84.9493 23.1093 84.8273 23.3384C84.7751 23.3864 84.0757 23.4941 83.2733 23.5778C81.223 23.7914 79.1014 23.5668 77.2994 22.5865C75.898 21.8242 75.0043 20.7675 74.3795 19.1341C73.9646 18.0494 73.8385 16.4528 73.8376 12.2694L73.8366 8.42449H70.9599V4.50612H73.9432V0.0979592ZM89.712 4.50612V0.0979592H94.6132V4.50612H100.26V8.42449H94.6664C94.6664 8.42449 94.6664 14.498 94.8793 17.4261C95.5566 19.1057 97.239 19.4435 98.9571 19.4436H100.584L100.526 23.3494C100.028 23.4859 99.6292 23.5148 98.6972 23.6098C96.9457 23.7683 95.0105 23.565 93.4412 22.7977C91.8084 21.9995 90.6023 20.796 90.1335 19.1816C89.4989 16.9959 89.7451 15.3136 89.7206 13.3714L89.6588 8.42449H86.6222V4.50612H89.712ZM133.413 6.46531C134.42 5.3233 135.834 4.51278 137.445 4.15445C138.211 3.984 140.472 4.04131 141.334 4.2529C143.654 4.82263 145.392 6.41554 146.047 8.5728C146.205 9.0911 146.23 9.98067 146.258 16.2367L146.288 23.2163H141.065V17.3633C141.065 12.7604 140.961 10.1878 140.196 9.39899C139.316 8.32526 136.703 8.09525 135.213 8.96033C134.625 9.30152 133.994 10.0104 133.708 10.6501L133.456 11.2163C133.453 11.83 133.446 12.9844 133.439 14.3436C133.42 17.8653 133.396 23.2163 133.396 23.2163H128.229V4.50612C129.023 4.49516 132.171 4.50612 132.171 4.50612C132.277 4.70204 132.86 7.03342 132.868 7.03063C132.906 7.01603 133.152 6.76163 133.413 6.46531ZM49.6506 4.50612C51.5195 4.50206 53.3906 4.53581 55.2592 4.50612C55.9551 5.52171 59.5853 10.6531 59.5853 10.6531C59.5853 10.6531 62.8699 5.9361 63.8378 4.50612C65.6445 4.52131 69.2551 4.50612 69.2551 4.50612L62.6493 13.7143L69.5748 23.2163H63.8213C63.8213 23.2163 60.8938 18.9849 59.4758 16.9175C58.051 19.0194 56.5906 21.0997 55.191 23.2163H49.6506C51.68 20.4428 56.4696 13.7143 56.4696 13.7143L49.6506 4.50612ZM1.06546e-08 8.22857V5.18038C1.06546e-08 5.18038 8.53927 5.21727 14.0108 5.24091C17.5801 5.38775 20.475 8.89905 19.937 12.6229C19.5286 15.4365 17.5246 17.5464 14.5969 18.3464C13.9392 18.534 13.554 18.546 6.95215 18.585L1.06546e-08 18.6261V15.5755L6.63251 15.5744C12.7094 15.5734 13.6117 15.5742 14.3451 15.251C14.4753 15.1936 14.6001 15.126 14.7477 15.0464C17.2471 13.7341 17.3717 10.3048 14.9455 8.84679C14.7583 8.73672 14.6092 8.64631 14.4512 8.57205C13.7061 8.22192 12.7615 8.23062 6.68578 8.22965L1.06546e-08 8.22857Z" fill="white"></path><path fill-rule="evenodd" clip-rule="evenodd" d="M37.1847 4.16777C34.2928 4.53044 32.266 5.87064 30.6598 7.72878C29.5013 9.15151 28.8427 11.1113 28.6487 12.8699C27.9661 19.1367 32.6405 23.9113 39.5287 23.7047C42.3612 23.7481 44.2827 23.1373 46.614 21.9882V18.0245C43.7373 19.4939 38.5047 21.4862 35.1775 18.1291C34.3044 17.3004 33.6645 16.2303 33.5383 15.2816H40.6389C47.3012 15.2816 47.786 15.2816 47.786 15.2816C48.0225 9.08571 44.5364 3.52653 37.1847 4.16777ZM42.9915 12.1959C42.9903 10.4519 42.0137 8.63303 40.1224 8.0977C39.4174 7.87886 37.8521 7.88944 37.1235 8.11807C35.7649 8.54439 34.5649 9.5807 34.0187 10.7995C33.5233 11.9045 33.5621 12.1959 33.5621 12.1959C33.5621 12.1959 41.2457 12.2024 42.9915 12.1959Z" fill="white"></path><path fill-rule="evenodd" clip-rule="evenodd" d="M114.324 24C120.444 24 125.405 19.4388 125.405 13.8122C125.405 8.1857 120.444 3.62449 114.324 3.62449C108.204 3.62449 103.243 8.1857 103.243 13.8122C103.243 19.4388 108.204 24 114.324 24ZM114.324 19.0041C117.443 19.0041 119.971 16.6796 119.971 13.8122C119.971 10.9449 117.443 8.62041 114.324 8.62041C111.206 8.62041 108.677 10.9449 108.677 13.8122C108.677 16.6796 111.206 19.0041 114.324 19.0041Z" fill="white"></path><path d="M155.576 0H156.35V24H155.576V0Z" fill="white"></path><path d="M169.583 18.75H166.074L170.632 5.65909H174.979L179.538 18.75H176.028L172.855 8.95739H172.75L169.583 18.75ZM169.115 13.598H176.45V16.0014H169.115V13.598Z" fill="url(#paint0_linear_483_387)"></path><path d="M169.583 18.75H166.074L170.632 5.65909H174.979L179.538 18.75H176.028L172.855 8.95739H172.75L169.583 18.75ZM169.115 13.598H176.45V16.0014H169.115V13.598Z" fill="white"></path><path d="M185.087 18.9354C184.018 18.9354 183.102 18.7223 182.336 18.2962C181.575 17.87 180.991 17.2777 180.582 16.5192C180.173 15.7564 179.968 14.8743 179.968 13.8729C179.968 12.8672 180.173 11.9851 180.582 11.2266C180.995 10.4638 181.582 9.86932 182.343 9.44318C183.108 9.01705 184.021 8.80398 185.081 8.80398C186.017 8.80398 186.833 8.96804 187.528 9.29616C188.227 9.62429 188.772 10.0888 189.164 10.6896C189.56 11.2862 189.769 11.9872 189.791 12.7926H186.776C186.714 12.2898 186.538 11.8956 186.248 11.6101C185.962 11.3246 185.588 11.1818 185.127 11.1818C184.753 11.1818 184.425 11.2841 184.144 11.4886C183.862 11.6889 183.642 11.9872 183.484 12.3835C183.33 12.7756 183.253 13.2614 183.253 13.8409C183.253 14.4205 183.33 14.9105 183.484 15.3111C183.642 15.7074 183.862 16.0078 184.144 16.2124C184.425 16.4126 184.753 16.5128 185.127 16.5128C185.426 16.5128 185.69 16.451 185.918 16.3274C186.151 16.2038 186.343 16.0227 186.492 15.7841C186.642 15.5412 186.736 15.2472 186.776 14.902H189.791C189.76 15.7116 189.551 16.419 189.164 17.0241C188.781 17.6293 188.243 18.1001 187.548 18.4368C186.857 18.7692 186.037 18.9354 185.087 18.9354Z" fill="url(#paint1_linear_483_387)"></path><path d="M185.087 18.9354C184.018 18.9354 183.102 18.7223 182.336 18.2962C181.575 17.87 180.991 17.2777 180.582 16.5192C180.173 15.7564 179.968 14.8743 179.968 13.8729C179.968 12.8672 180.173 11.9851 180.582 11.2266C180.995 10.4638 181.582 9.86932 182.343 9.44318C183.108 9.01705 184.021 8.80398 185.081 8.80398C186.017 8.80398 186.833 8.96804 187.528 9.29616C188.227 9.62429 188.772 10.0888 189.164 10.6896C189.56 11.2862 189.769 11.9872 189.791 12.7926H186.776C186.714 12.2898 186.538 11.8956 186.248 11.6101C185.962 11.3246 185.588 11.1818 185.127 11.1818C184.753 11.1818 184.425 11.2841 184.144 11.4886C183.862 11.6889 183.642 11.9872 183.484 12.3835C183.33 12.7756 183.253 13.2614 183.253 13.8409C183.253 14.4205 183.33 14.9105 183.484 15.3111C183.642 15.7074 183.862 16.0078 184.144 16.2124C184.425 16.4126 184.753 16.5128 185.127 16.5128C185.426 16.5128 185.69 16.451 185.918 16.3274C186.151 16.2038 186.343 16.0227 186.492 15.7841C186.642 15.5412 186.736 15.2472 186.776 14.902H189.791C189.76 15.7116 189.551 16.419 189.164 17.0241C188.781 17.6293 188.243 18.1001 187.548 18.4368C186.857 18.7692 186.037 18.9354 185.087 18.9354Z" fill="white"></path><path d="M196.171 18.9354C195.103 18.9354 194.186 18.7223 193.42 18.2962C192.66 17.87 192.075 17.2777 191.666 16.5192C191.257 15.7564 191.052 14.8743 191.052 13.8729C191.052 12.8672 191.257 11.9851 191.666 11.2266C192.079 10.4638 192.666 9.86932 193.427 9.44318C194.192 9.01705 195.105 8.80398 196.165 8.80398C197.101 8.80398 197.917 8.96804 198.612 9.29616C199.311 9.62429 199.857 10.0888 200.248 10.6896C200.644 11.2862 200.853 11.9872 200.875 12.7926H197.86C197.798 12.2898 197.622 11.8956 197.332 11.6101C197.046 11.3246 196.673 11.1818 196.211 11.1818C195.837 11.1818 195.509 11.2841 195.228 11.4886C194.946 11.6889 194.727 11.9872 194.568 12.3835C194.414 12.7756 194.337 13.2614 194.337 13.8409C194.337 14.4205 194.414 14.9105 194.568 15.3111C194.727 15.7074 194.946 16.0078 195.228 16.2124C195.509 16.4126 195.837 16.5128 196.211 16.5128C196.51 16.5128 196.774 16.451 197.002 16.3274C197.235 16.2038 197.427 16.0227 197.576 15.7841C197.726 15.5412 197.82 15.2472 197.86 14.902H200.875C200.844 15.7116 200.635 16.419 200.248 17.0241C199.865 17.6293 199.327 18.1001 198.632 18.4368C197.941 18.7692 197.121 18.9354 196.171 18.9354Z" fill="url(#paint2_linear_483_387)"></path><path d="M196.171 18.9354C195.103 18.9354 194.186 18.7223 193.42 18.2962C192.66 17.87 192.075 17.2777 191.666 16.5192C191.257 15.7564 191.052 14.8743 191.052 13.8729C191.052 12.8672 191.257 11.9851 191.666 11.2266C192.079 10.4638 192.666 9.86932 193.427 9.44318C194.192 9.01705 195.105 8.80398 196.165 8.80398C197.101 8.80398 197.917 8.96804 198.612 9.29616C199.311 9.62429 199.857 10.0888 200.248 10.6896C200.644 11.2862 200.853 11.9872 200.875 12.7926H197.86C197.798 12.2898 197.622 11.8956 197.332 11.6101C197.046 11.3246 196.673 11.1818 196.211 11.1818C195.837 11.1818 195.509 11.2841 195.228 11.4886C194.946 11.6889 194.727 11.9872 194.568 12.3835C194.414 12.7756 194.337 13.2614 194.337 13.8409C194.337 14.4205 194.414 14.9105 194.568 15.3111C194.727 15.7074 194.946 16.0078 195.228 16.2124C195.509 16.4126 195.837 16.5128 196.211 16.5128C196.51 16.5128 196.774 16.451 197.002 16.3274C197.235 16.2038 197.427 16.0227 197.576 15.7841C197.726 15.5412 197.82 15.2472 197.86 14.902H200.875C200.844 15.7116 200.635 16.419 200.248 17.0241C199.865 17.6293 199.327 18.1001 198.632 18.4368C197.941 18.7692 197.121 18.9354 196.171 18.9354Z" fill="white"></path><path d="M207.262 18.9354C206.202 18.9354 205.287 18.733 204.518 18.3281C203.752 17.919 203.163 17.3374 202.75 16.5831C202.341 15.8246 202.136 14.9233 202.136 13.8793C202.136 12.8651 202.343 11.9787 202.756 11.2202C203.17 10.4574 203.752 9.86506 204.504 9.44318C205.257 9.01705 206.143 8.80398 207.163 8.80398C207.884 8.80398 208.544 8.91264 209.142 9.12997C209.74 9.3473 210.257 9.66903 210.692 10.0952C211.128 10.5213 211.466 11.0476 211.708 11.674C211.95 12.2962 212.071 13.0099 212.071 13.8153V14.5952H203.264V12.7798H209.069C209.065 12.4474 208.984 12.1513 208.825 11.8913C208.667 11.6314 208.449 11.429 208.172 11.2841C207.9 11.1349 207.585 11.0604 207.229 11.0604C206.868 11.0604 206.545 11.1392 206.259 11.2969C205.973 11.4503 205.747 11.6612 205.58 11.9297C205.413 12.1939 205.325 12.4943 205.316 12.831V14.6783C205.316 15.0788 205.397 15.4304 205.56 15.733C205.723 16.0312 205.954 16.2635 206.253 16.4297C206.552 16.5959 206.908 16.679 207.321 16.679C207.607 16.679 207.867 16.6406 208.1 16.5639C208.333 16.4872 208.533 16.3743 208.7 16.2251C208.867 16.076 208.992 15.8928 209.076 15.6754L212.038 15.7585C211.915 16.402 211.644 16.9624 211.226 17.4396C210.813 17.9126 210.27 18.2812 209.597 18.5455C208.924 18.8054 208.146 18.9354 207.262 18.9354Z" fill="url(#paint3_linear_483_387)"></path><path d="M207.262 18.9354C206.202 18.9354 205.287 18.733 204.518 18.3281C203.752 17.919 203.163 17.3374 202.75 16.5831C202.341 15.8246 202.136 14.9233 202.136 13.8793C202.136 12.8651 202.343 11.9787 202.756 11.2202C203.17 10.4574 203.752 9.86506 204.504 9.44318C205.257 9.01705 206.143 8.80398 207.163 8.80398C207.884 8.80398 208.544 8.91264 209.142 9.12997C209.74 9.3473 210.257 9.66903 210.692 10.0952C211.128 10.5213 211.466 11.0476 211.708 11.674C211.95 12.2962 212.071 13.0099 212.071 13.8153V14.5952H203.264V12.7798H209.069C209.065 12.4474 208.984 12.1513 208.825 11.8913C208.667 11.6314 208.449 11.429 208.172 11.2841C207.9 11.1349 207.585 11.0604 207.229 11.0604C206.868 11.0604 206.545 11.1392 206.259 11.2969C205.973 11.4503 205.747 11.6612 205.58 11.9297C205.413 12.1939 205.325 12.4943 205.316 12.831V14.6783C205.316 15.0788 205.397 15.4304 205.56 15.733C205.723 16.0312 205.954 16.2635 206.253 16.4297C206.552 16.5959 206.908 16.679 207.321 16.679C207.607 16.679 207.867 16.6406 208.1 16.5639C208.333 16.4872 208.533 16.3743 208.7 16.2251C208.867 16.076 208.992 15.8928 209.076 15.6754L212.038 15.7585C211.915 16.402 211.644 16.9624 211.226 17.4396C210.813 17.9126 210.27 18.2812 209.597 18.5455C208.924 18.8054 208.146 18.9354 207.262 18.9354Z" fill="white"></path><path d="M216.944 5.65909V18.75H213.718V5.65909H216.944Z" fill="url(#paint4_linear_483_387)"></path><path d="M216.944 5.65909V18.75H213.718V5.65909H216.944Z" fill="white"></path><path d="M223.734 18.9354C222.674 18.9354 221.759 18.733 220.99 18.3281C220.224 17.919 219.635 17.3374 219.222 16.5831C218.813 15.8246 218.608 14.9233 218.608 13.8793C218.608 12.8651 218.815 11.9787 219.228 11.2202C219.642 10.4574 220.224 9.86506 220.976 9.44318C221.728 9.01705 222.615 8.80398 223.635 8.80398C224.356 8.80398 225.016 8.91264 225.614 9.12997C226.212 9.3473 226.729 9.66903 227.164 10.0952C227.599 10.5213 227.938 11.0476 228.18 11.674C228.422 12.2962 228.543 13.0099 228.543 13.8153V14.5952H219.736V12.7798H225.541C225.537 12.4474 225.456 12.1513 225.297 11.8913C225.139 11.6314 224.921 11.429 224.644 11.2841C224.372 11.1349 224.057 11.0604 223.701 11.0604C223.34 11.0604 223.017 11.1392 222.731 11.2969C222.445 11.4503 222.219 11.6612 222.052 11.9297C221.885 12.1939 221.797 12.4943 221.788 12.831V14.6783C221.788 15.0788 221.869 15.4304 222.032 15.733C222.195 16.0312 222.425 16.2635 222.725 16.4297C223.024 16.5959 223.38 16.679 223.793 16.679C224.079 16.679 224.339 16.6406 224.572 16.5639C224.805 16.4872 225.005 16.3743 225.172 16.2251C225.339 16.076 225.464 15.8928 225.548 15.6754L228.51 15.7585C228.387 16.402 228.116 16.9624 227.698 17.4396C227.285 17.9126 226.742 18.2812 226.069 18.5455C225.396 18.8054 224.618 18.9354 223.734 18.9354Z" fill="url(#paint5_linear_483_387)"></path><path d="M223.734 18.9354C222.674 18.9354 221.759 18.733 220.99 18.3281C220.224 17.919 219.635 17.3374 219.222 16.5831C218.813 15.8246 218.608 14.9233 218.608 13.8793C218.608 12.8651 218.815 11.9787 219.228 11.2202C219.642 10.4574 220.224 9.86506 220.976 9.44318C221.728 9.01705 222.615 8.80398 223.635 8.80398C224.356 8.80398 225.016 8.91264 225.614 9.12997C226.212 9.3473 226.729 9.66903 227.164 10.0952C227.599 10.5213 227.938 11.0476 228.18 11.674C228.422 12.2962 228.543 13.0099 228.543 13.8153V14.5952H219.736V12.7798H225.541C225.537 12.4474 225.456 12.1513 225.297 11.8913C225.139 11.6314 224.921 11.429 224.644 11.2841C224.372 11.1349 224.057 11.0604 223.701 11.0604C223.34 11.0604 223.017 11.1392 222.731 11.2969C222.445 11.4503 222.219 11.6612 222.052 11.9297C221.885 12.1939 221.797 12.4943 221.788 12.831V14.6783C221.788 15.0788 221.869 15.4304 222.032 15.733C222.195 16.0312 222.425 16.2635 222.725 16.4297C223.024 16.5959 223.38 16.679 223.793 16.679C224.079 16.679 224.339 16.6406 224.572 16.5639C224.805 16.4872 225.005 16.3743 225.172 16.2251C225.339 16.076 225.464 15.8928 225.548 15.6754L228.51 15.7585C228.387 16.402 228.116 16.9624 227.698 17.4396C227.285 17.9126 226.742 18.2812 226.069 18.5455C225.396 18.8054 224.618 18.9354 223.734 18.9354Z" fill="white"></path><path d="M230.19 18.75V8.93182H233.324V10.7216H233.429C233.614 10.0739 233.915 9.59233 234.333 9.27699C234.751 8.95739 235.237 8.79759 235.791 8.79759C235.94 8.79759 236.094 8.80824 236.253 8.82955C236.411 8.84659 236.558 8.87429 236.695 8.91264V11.6293C236.541 11.5781 236.338 11.5376 236.088 11.5078C235.841 11.478 235.622 11.4631 235.428 11.4631C235.046 11.4631 234.7 11.5462 234.392 11.7124C234.089 11.8743 233.849 12.1023 233.673 12.3963C233.502 12.6861 233.416 13.027 233.416 13.419V18.75H230.19Z" fill="url(#paint6_linear_483_387)"></path><path d="M230.19 18.75V8.93182H233.324V10.7216H233.429C233.614 10.0739 233.915 9.59233 234.333 9.27699C234.751 8.95739 235.237 8.79759 235.791 8.79759C235.94 8.79759 236.094 8.80824 236.253 8.82955C236.411 8.84659 236.558 8.87429 236.695 8.91264V11.6293C236.541 11.5781 236.338 11.5376 236.088 11.5078C235.841 11.478 235.622 11.4631 235.428 11.4631C235.046 11.4631 234.7 11.5462 234.392 11.7124C234.089 11.8743 233.849 12.1023 233.673 12.3963C233.502 12.6861 233.416 13.027 233.416 13.419V18.75H230.19Z" fill="white"></path><path d="M240.484 18.9162C239.838 18.9162 239.264 18.8118 238.763 18.603C238.266 18.3899 237.872 18.0703 237.582 17.6442C237.296 17.2138 237.153 16.6747 237.153 16.027C237.153 15.4815 237.252 15.0213 237.45 14.6463C237.648 14.2713 237.921 13.9666 238.268 13.7322C238.615 13.4979 239.016 13.321 239.469 13.2017C239.922 13.0781 240.405 12.995 240.92 12.9524C241.496 12.9013 241.96 12.848 242.312 12.7926C242.664 12.733 242.919 12.6499 243.077 12.5433C243.24 12.4325 243.321 12.277 243.321 12.0767V12.0447C243.321 11.7166 243.204 11.4631 242.971 11.2841C242.738 11.1051 242.424 11.0156 242.028 11.0156C241.601 11.0156 241.258 11.1051 240.999 11.2841C240.74 11.4631 240.575 11.7102 240.504 12.0256L237.529 11.9233C237.617 11.3267 237.844 10.794 238.209 10.3253C238.578 9.85227 239.084 9.48153 239.726 9.21307C240.372 8.94034 241.149 8.80398 242.054 8.80398C242.701 8.80398 243.297 8.87855 243.842 9.0277C244.387 9.17259 244.862 9.38565 245.267 9.6669C245.672 9.94389 245.984 10.2848 246.204 10.6896C246.428 11.0945 246.54 11.5568 246.54 12.0767V18.75H243.506V17.3821H243.427C243.246 17.7145 243.015 17.9957 242.734 18.2259C242.457 18.456 242.129 18.6286 241.751 18.7436C241.377 18.8587 240.955 18.9162 240.484 18.9162ZM241.481 16.8707C241.828 16.8707 242.14 16.8026 242.417 16.6662C242.699 16.5298 242.923 16.3423 243.09 16.1037C243.257 15.8608 243.341 15.5795 243.341 15.2599V14.3267C243.248 14.3736 243.136 14.4162 243.004 14.4545C242.877 14.4929 242.736 14.5291 242.582 14.5632C242.428 14.5973 242.27 14.6271 242.107 14.6527C241.945 14.6783 241.788 14.7017 241.639 14.723C241.335 14.7699 241.076 14.8423 240.86 14.9403C240.649 15.0384 240.487 15.1662 240.372 15.3239C240.262 15.4773 240.207 15.6605 240.207 15.8736C240.207 16.1974 240.326 16.4446 240.564 16.6151C240.805 16.7855 241.111 16.8707 241.481 16.8707Z" fill="url(#paint7_linear_483_387)"></path><path d="M240.484 18.9162C239.838 18.9162 239.264 18.8118 238.763 18.603C238.266 18.3899 237.872 18.0703 237.582 17.6442C237.296 17.2138 237.153 16.6747 237.153 16.027C237.153 15.4815 237.252 15.0213 237.45 14.6463C237.648 14.2713 237.921 13.9666 238.268 13.7322C238.615 13.4979 239.016 13.321 239.469 13.2017C239.922 13.0781 240.405 12.995 240.92 12.9524C241.496 12.9013 241.96 12.848 242.312 12.7926C242.664 12.733 242.919 12.6499 243.077 12.5433C243.24 12.4325 243.321 12.277 243.321 12.0767V12.0447C243.321 11.7166 243.204 11.4631 242.971 11.2841C242.738 11.1051 242.424 11.0156 242.028 11.0156C241.601 11.0156 241.258 11.1051 240.999 11.2841C240.74 11.4631 240.575 11.7102 240.504 12.0256L237.529 11.9233C237.617 11.3267 237.844 10.794 238.209 10.3253C238.578 9.85227 239.084 9.48153 239.726 9.21307C240.372 8.94034 241.149 8.80398 242.054 8.80398C242.701 8.80398 243.297 8.87855 243.842 9.0277C244.387 9.17259 244.862 9.38565 245.267 9.6669C245.672 9.94389 245.984 10.2848 246.204 10.6896C246.428 11.0945 246.54 11.5568 246.54 12.0767V18.75H243.506V17.3821H243.427C243.246 17.7145 243.015 17.9957 242.734 18.2259C242.457 18.456 242.129 18.6286 241.751 18.7436C241.377 18.8587 240.955 18.9162 240.484 18.9162ZM241.481 16.8707C241.828 16.8707 242.14 16.8026 242.417 16.6662C242.699 16.5298 242.923 16.3423 243.09 16.1037C243.257 15.8608 243.341 15.5795 243.341 15.2599V14.3267C243.248 14.3736 243.136 14.4162 243.004 14.4545C242.877 14.4929 242.736 14.5291 242.582 14.5632C242.428 14.5973 242.27 14.6271 242.107 14.6527C241.945 14.6783 241.788 14.7017 241.639 14.723C241.335 14.7699 241.076 14.8423 240.86 14.9403C240.649 15.0384 240.487 15.1662 240.372 15.3239C240.262 15.4773 240.207 15.6605 240.207 15.8736C240.207 16.1974 240.326 16.4446 240.564 16.6151C240.805 16.7855 241.111 16.8707 241.481 16.8707Z" fill="white"></path><path d="M254.232 8.93182V11.233H247.84V8.93182H254.232ZM249.179 6.57955H252.405V15.6626C252.405 15.8544 252.435 16.0099 252.497 16.1293C252.563 16.2443 252.658 16.3274 252.781 16.3786C252.904 16.4254 253.051 16.4489 253.223 16.4489C253.346 16.4489 253.476 16.4382 253.612 16.4169C253.753 16.3913 253.858 16.37 253.929 16.353L254.417 18.6094C254.263 18.652 254.045 18.7053 253.764 18.7692C253.487 18.8331 253.154 18.8736 252.767 18.8906C252.011 18.9247 251.362 18.8395 250.821 18.6349C250.285 18.4261 249.874 18.1023 249.588 17.6634C249.306 17.2244 249.17 16.6726 249.179 16.0078V6.57955Z" fill="url(#paint8_linear_483_387)"></path><path d="M254.232 8.93182V11.233H247.84V8.93182H254.232ZM249.179 6.57955H252.405V15.6626C252.405 15.8544 252.435 16.0099 252.497 16.1293C252.563 16.2443 252.658 16.3274 252.781 16.3786C252.904 16.4254 253.051 16.4489 253.223 16.4489C253.346 16.4489 253.476 16.4382 253.612 16.4169C253.753 16.3913 253.858 16.37 253.929 16.353L254.417 18.6094C254.263 18.652 254.045 18.7053 253.764 18.7692C253.487 18.8331 253.154 18.8736 252.767 18.8906C252.011 18.9247 251.362 18.8395 250.821 18.6349C250.285 18.4261 249.874 18.1023 249.588 17.6634C249.306 17.2244 249.17 16.6726 249.179 16.0078V6.57955Z" fill="white"></path><path d="M260.499 18.9354C259.435 18.9354 258.52 18.7244 257.755 18.3026C256.994 17.8764 256.407 17.2841 255.993 16.5256C255.584 15.7628 255.38 14.8786 255.38 13.8729C255.38 12.8629 255.584 11.9787 255.993 11.2202C256.407 10.4574 256.994 9.86506 257.755 9.44318C258.52 9.01705 259.435 8.80398 260.499 8.80398C261.563 8.80398 262.476 9.01705 263.236 9.44318C264.002 9.86506 264.589 10.4574 264.998 11.2202C265.411 11.9787 265.618 12.8629 265.618 13.8729C265.618 14.8786 265.411 15.7628 264.998 16.5256C264.589 17.2841 264.002 17.8764 263.236 18.3026C262.476 18.7244 261.563 18.9354 260.499 18.9354ZM260.519 16.5767C260.906 16.5767 261.233 16.4616 261.501 16.2315C261.77 16.0014 261.974 15.6818 262.115 15.2727C262.26 14.8636 262.333 14.3906 262.333 13.8537C262.333 13.3082 262.26 12.831 262.115 12.4219C261.974 12.0128 261.77 11.6932 261.501 11.4631C261.233 11.233 260.906 11.1179 260.519 11.1179C260.118 11.1179 259.78 11.233 259.503 11.4631C259.23 11.6932 259.021 12.0128 258.876 12.4219C258.735 12.831 258.665 13.3082 258.665 13.8537C258.665 14.3906 258.735 14.8636 258.876 15.2727C259.021 15.6818 259.23 16.0014 259.503 16.2315C259.78 16.4616 260.118 16.5767 260.519 16.5767Z" fill="url(#paint9_linear_483_387)"></path><path d="M260.499 18.9354C259.435 18.9354 258.52 18.7244 257.755 18.3026C256.994 17.8764 256.407 17.2841 255.993 16.5256C255.584 15.7628 255.38 14.8786 255.38 13.8729C255.38 12.8629 255.584 11.9787 255.993 11.2202C256.407 10.4574 256.994 9.86506 257.755 9.44318C258.52 9.01705 259.435 8.80398 260.499 8.80398C261.563 8.80398 262.476 9.01705 263.236 9.44318C264.002 9.86506 264.589 10.4574 264.998 11.2202C265.411 11.9787 265.618 12.8629 265.618 13.8729C265.618 14.8786 265.411 15.7628 264.998 16.5256C264.589 17.2841 264.002 17.8764 263.236 18.3026C262.476 18.7244 261.563 18.9354 260.499 18.9354ZM260.519 16.5767C260.906 16.5767 261.233 16.4616 261.501 16.2315C261.77 16.0014 261.974 15.6818 262.115 15.2727C262.26 14.8636 262.333 14.3906 262.333 13.8537C262.333 13.3082 262.26 12.831 262.115 12.4219C261.974 12.0128 261.77 11.6932 261.501 11.4631C261.233 11.233 260.906 11.1179 260.519 11.1179C260.118 11.1179 259.78 11.233 259.503 11.4631C259.23 11.6932 259.021 12.0128 258.876 12.4219C258.735 12.831 258.665 13.3082 258.665 13.8537C258.665 14.3906 258.735 14.8636 258.876 15.2727C259.021 15.6818 259.23 16.0014 259.503 16.2315C259.78 16.4616 260.118 16.5767 260.519 16.5767Z" fill="white"></path><path d="M267.27 18.75V8.93182H270.404V10.7216H270.509C270.694 10.0739 270.995 9.59233 271.413 9.27699C271.831 8.95739 272.317 8.79759 272.871 8.79759C273.02 8.79759 273.174 8.80824 273.333 8.82955C273.491 8.84659 273.638 8.87429 273.775 8.91264V11.6293C273.621 11.5781 273.418 11.5376 273.168 11.5078C272.921 11.478 272.702 11.4631 272.508 11.4631C272.125 11.4631 271.78 11.5462 271.472 11.7124C271.169 11.8743 270.929 12.1023 270.753 12.3963C270.582 12.6861 270.496 13.027 270.496 13.419V18.75H267.27Z" fill="url(#paint10_linear_483_387)"></path><path d="M267.27 18.75V8.93182H270.404V10.7216H270.509C270.694 10.0739 270.995 9.59233 271.413 9.27699C271.831 8.95739 272.317 8.79759 272.871 8.79759C273.02 8.79759 273.174 8.80824 273.333 8.82955C273.491 8.84659 273.638 8.87429 273.775 8.91264V11.6293C273.621 11.5781 273.418 11.5376 273.168 11.5078C272.921 11.478 272.702 11.4631 272.508 11.4631C272.125 11.4631 271.78 11.5462 271.472 11.7124C271.169 11.8743 270.929 12.1023 270.753 12.3963C270.582 12.6861 270.496 13.027 270.496 13.419V18.75H267.27Z" fill="white"></path><path d="M6.85317 3.03673H0V0L6.20633 0.00303731C12.9863 0.00626996 14.5349 0.0693557 15.8221 0.394875C16.2909 0.513405 16.7704 0.632132 16.8875 0.658841C25.8847 3.60622 28.6539 14.1354 21.7492 20.2831C20.199 21.6989 18.847 22.4813 16.8876 23.0968C15.5973 23.503 12.3439 23.7061 7.12721 23.7061H0V20.7673H6.79233C13.8403 20.7673 14.2455 20.7478 15.6622 20.3397C22.005 18.4762 24.447 11.1701 20.265 6.38518C18.7625 4.68862 16.9703 3.67817 14.6577 3.22374C13.7774 3.05074 13.1935 3.03673 6.85317 3.03673Z" fill="url(#paint11_linear_483_387)"></path><path d="M6.85317 3.03673H0V0L6.20633 0.00303731C12.9863 0.00626996 14.5349 0.0693557 15.8221 0.394875C16.2909 0.513405 16.7704 0.632132 16.8875 0.658841C25.8847 3.60622 28.6539 14.1354 21.7492 20.2831C20.199 21.6989 18.847 22.4813 16.8876 23.0968C15.5973 23.503 12.3439 23.7061 7.12721 23.7061H0V20.7673H6.79233C13.8403 20.7673 14.2455 20.7478 15.6622 20.3397C22.005 18.4762 24.447 11.1701 20.265 6.38518C18.7625 4.68862 16.9703 3.67817 14.6577 3.22374C13.7774 3.05074 13.1935 3.03673 6.85317 3.03673Z" fill="#CF8FE5"></path><path d="M6.68578 8.22965L0 8.22857V5.18038L14.0108 5.24091C17.5801 5.38775 20.475 8.89905 19.937 12.6229C19.5286 15.4365 17.5246 17.5464 14.5969 18.3464C13.9392 18.534 13.554 18.546 6.95215 18.585L0 18.6261V15.5755L6.63251 15.5744L6.68396 15.5744C12.7145 15.5734 13.6138 15.5733 14.3451 15.251C14.4732 15.1945 14.5962 15.1281 14.7407 15.0501L14.7477 15.0464C17.2471 13.7341 17.3717 10.3048 14.9455 8.84679C14.7583 8.73672 14.6092 8.64631 14.4512 8.57205C13.7061 8.22192 12.7615 8.23062 6.68578 8.22965Z" fill="url(#paint12_linear_483_387)"></path><path d="M6.68578 8.22965L0 8.22857V5.18038L14.0108 5.24091C17.5801 5.38775 20.475 8.89905 19.937 12.6229C19.5286 15.4365 17.5246 17.5464 14.5969 18.3464C13.9392 18.534 13.554 18.546 6.95215 18.585L0 18.6261V15.5755L6.63251 15.5744L6.68396 15.5744C12.7145 15.5734 13.6138 15.5733 14.3451 15.251C14.4732 15.1945 14.5962 15.1281 14.7407 15.0501L14.7477 15.0464C17.2471 13.7341 17.3717 10.3048 14.9455 8.84679C14.7583 8.73672 14.6092 8.64631 14.4512 8.57205C13.7061 8.22192 12.7615 8.23062 6.68578 8.22965Z" fill="#CF8FE5"></path></g><defs><linearGradient id="paint0_linear_483_387" x1="165.638" y1="12" x2="274.774" y2="12" gradientUnits="userSpaceOnUse"><stop stop-color="white"></stop><stop offset="1" stop-color="#5CACFC"></stop></linearGradient><linearGradient id="paint1_linear_483_387" x1="165.638" y1="12" x2="274.774" y2="12" gradientUnits="userSpaceOnUse"><stop stop-color="white"></stop><stop offset="1" stop-color="#5CACFC"></stop></linearGradient><linearGradient id="paint2_linear_483_387" x1="165.638" y1="12" x2="274.774" y2="12" gradientUnits="userSpaceOnUse"><stop stop-color="white"></stop><stop offset="1" stop-color="#5CACFC"></stop></linearGradient><linearGradient id="paint3_linear_483_387" x1="165.638" y1="12" x2="274.774" y2="12" gradientUnits="userSpaceOnUse"><stop stop-color="white"></stop><stop offset="1" stop-color="#5CACFC"></stop></linearGradient><linearGradient id="paint4_linear_483_387" x1="165.638" y1="12" x2="274.774" y2="12" gradientUnits="userSpaceOnUse"><stop stop-color="white"></stop><stop offset="1" stop-color="#5CACFC"></stop></linearGradient><linearGradient id="paint5_linear_483_387" x1="165.638" y1="12" x2="274.774" y2="12" gradientUnits="userSpaceOnUse"><stop stop-color="white"></stop><stop offset="1" stop-color="#5CACFC"></stop></linearGradient><linearGradient id="paint6_linear_483_387" x1="165.638" y1="12" x2="274.774" y2="12" gradientUnits="userSpaceOnUse"><stop stop-color="white"></stop><stop offset="1" stop-color="#5CACFC"></stop></linearGradient><linearGradient id="paint7_linear_483_387" x1="165.638" y1="12" x2="274.774" y2="12" gradientUnits="userSpaceOnUse"><stop stop-color="white"></stop><stop offset="1" stop-color="#5CACFC"></stop></linearGradient><linearGradient id="paint8_linear_483_387" x1="165.638" y1="12" x2="274.774" y2="12" gradientUnits="userSpaceOnUse"><stop stop-color="white"></stop><stop offset="1" stop-color="#5CACFC"></stop></linearGradient><linearGradient id="paint9_linear_483_387" x1="165.638" y1="12" x2="274.774" y2="12" gradientUnits="userSpaceOnUse"><stop stop-color="white"></stop><stop offset="1" stop-color="#5CACFC"></stop></linearGradient><linearGradient id="paint10_linear_483_387" x1="165.638" y1="12" x2="274.774" y2="12" gradientUnits="userSpaceOnUse"><stop stop-color="white"></stop><stop offset="1" stop-color="#5CACFC"></stop></linearGradient><linearGradient id="paint11_linear_483_387" x1="165.638" y1="12" x2="274.774" y2="12" gradientUnits="userSpaceOnUse"><stop stop-color="white"></stop><stop offset="1" stop-color="#5CACFC"></stop></linearGradient><linearGradient id="paint12_linear_483_387" x1="165.638" y1="12" x2="274.774" y2="12" gradientUnits="userSpaceOnUse"><stop stop-color="white"></stop><stop offset="1" stop-color="#5CACFC"></stop></linearGradient><clipPath id="clip0_483_387"><rect width="274" height="24" fill="white"></rect></clipPath></defs></svg>